HIERARCHY
ROOT Hips
{
	OFFSET -0.179506 -22.333345 2.821913
	CHANNELS 6 Xposition Yposition Zposition Zrotation Yrotation Xrotation 
	JOINT LeftUpLeg
	{
		OFFSET 6.951974 -9.140623 -0.681533
		CHANNELS 3 Zrotation Yrotation Xrotation
		JOINT LeftLeg
		{
			OFFSET 3.427654 -37.519855 -0.449580
			CHANNELS 3 Zrotation Yrotation Xrotation
			JOINT LeftFoot
			{
				OFFSET -1.359570 -39.796059 -4.369333
				CHANNELS 3 Zrotation Yrotation Xrotation
				JOINT LeftToe
				{
					OFFSET 2.635814 -5.579078 11.928840
					CHANNELS 3 Zrotation Yrotation Xrotation
					End Site
					{
						OFFSET 0.000000 0.000000 0.000000
					}
				}
			}
		}
	}
	JOINT RightUpLeg
	{
		OFFSET -6.767048 -9.052170 -0.431982
		CHANNELS 3 Zrotation Yrotation Xrotation
		JOINT RightLeg
		{
			OFFSET -3.829005 -38.256897 -0.885003
			CHANNELS 3 Zrotation Yrotation Xrotation
			JOINT RightFoot
			{
				OFFSET 1.577377 -39.841461 -4.231180
				CHANNELS 3 Zrotation Yrotation Xrotation
				JOINT RightToe
				{
					OFFSET -2.537174 -4.814398 12.334795
					CHANNELS 3 Zrotation Yrotation Xrotation
					End Site
					{
						OFFSET 0.000000 0.000000 0.000000
					}
				}
			}
		}
	}
	JOINT Spine
	{
		OFFSET -0.253288 10.896323 -2.669631
		CHANNELS 3 Zrotation Yrotation Xrotation
		JOINT Spine1
		{
			OFFSET 0.548704 13.518043 0.109247
			CHANNELS 3 Zrotation Yrotation Xrotation
			JOINT Spine2
			{
				OFFSET 0.145701 5.292222 2.542457
				CHANNELS 3 Zrotation Yrotation Xrotation
				JOINT Neck
				{
					OFFSET -0.277840 21.387037 -4.285703
					CHANNELS 3 Zrotation Yrotation Xrotation
					JOINT Head
					{
						OFFSET 0.515184 6.496960 5.134897
						CHANNELS 3 Zrotation Yrotation Xrotation
						End Site
						{
							OFFSET 0.000000 0.000000 0.000000
						}
					}
				}
				JOINT LeftShoulder
				{
					OFFSET 7.884473 12.174932 -3.408961
					CHANNELS 3 Zrotation Yrotation Xrotation
					JOINT LeftArm
					{
						OFFSET 9.097692 3.046888 -0.886815
						CHANNELS 3 Zrotation Yrotation Xrotation
						JOINT LeftForeArm
						{
							OFFSET 25.961220 -1.277207 -2.745643
							CHANNELS 3 Zrotation Yrotation Xrotation
							JOINT LeftHand
							{
								OFFSET 24.923361 0.898606 -0.117091
								CHANNELS 3 Zrotation Yrotation Xrotation
								End Site
								{
									OFFSET 0.000000 0.000000 0.000000
								}
							}
						}
					}
				}
				JOINT RightShoulder
				{
					OFFSET -8.175920 11.883285 -3.861528
					CHANNELS 3 Zrotation Yrotation Xrotation
					JOINT RightArm
					{
						OFFSET -9.601238 3.255117 -0.914307
						CHANNELS 3 Zrotation Yrotation Xrotation
						JOINT RightForeArm
						{
							OFFSET -25.374195 -1.332924 -2.140099
							CHANNELS 3 Zrotation Yrotation Xrotation
							JOINT RightHand
							{
								OFFSET -25.529810 0.777228 -0.555919
								CHANNELS 3 Zrotation Yrotation Xrotation
								End Site
								{
									OFFSET 0.000000 0.000000 0.000000
								}
							}
						}
					}
				}
			}
		}
	}
}
MOTION
Frames: 16
Frame Time: 0.033333
8.444230 -54.098576 90.923820 -129.540364 2.043020 89.480940 1.818561 7.656813 -7.146461 -4.774631 10.824371 8.617138 5.220221 17.290240 -12.823743 nan nan nan -7.157454 -12.210170 3.554527 2.207769 -16.145049 20.580664 1.421139 -13.956176 -15.057312 nan nan nan -5.648340 5.510637 3.188798 3.287535 -4.706999 10.350011 0.489363 0.923923 -5.719348 0.259461 -12.112733 1.720672 1.263466 -16.338237 7.651514 -21.860718 -9.287254 -1.500372 -59.791908 -30.035449 29.484321 1.013631 -60.626905 7.439079 -21.154128 -19.000839 4.123180 23.773662 8.027410 -5.982597 52.817051 1.288181 10.815615 -24.542215 20.044716 -19.227078 11.649582 3.349993 3.614896 
8.562845 -54.089458 90.895134 -130.116264 1.911609 89.461274 1.808495 7.644585 -7.101739 -4.857008 10.858325 8.554960 5.218391 17.512103 -12.728122 nan nan nan -6.995452 -12.288687 3.877763 2.124211 -16.060348 20.300909 1.300879 -14.190097 -15.193948 nan nan nan -5.745731 5.547361 3.136354 3.211838 -4.589920 10.308012 0.491484 0.993361 -5.702275 0.252121 -11.921172 1.677186 1.194317 -16.247442 7.716018 -21.827338 -9.086066 -1.677628 -59.964203 -29.801813 29.602837 0.984445 -59.638868 7.635376 -21.109636 -18.864405 4.058964 23.907225 8.012811 -5.895006 53.034112 1.165294 11.121742 -24.233753 19.671177 -18.769112 11.936809 3.358020 3.619017 
8.669797 -54.158871 90.854836 -130.625892 1.652510 89.486806 1.535725 7.506104 -7.139632 -4.828822 10.980136 8.475992 5.318355 17.769440 -12.607958 nan nan nan -7.102512 -12.367984 4.120431 2.172255 -16.046971 20.038728 1.197171 -14.348022 -15.303704 nan nan nan -5.835820 5.626790 3.019547 3.092422 -4.606921 10.436303 0.425604 1.081125 -5.779510 0.213814 -11.871234 1.547292 1.080761 -16.045435 7.786355 -21.830011 -8.934003 -1.747056 -60.084608 -29.629608 29.682805 1.104236 -58.718380 7.704864 -21.427414 -18.547408 4.179025 23.981943 7.957891 -5.885783 53.283650 1.061177 11.395086 -23.972092 19.322137 -18.500390 12.772344 3.372013 3.771212 
8.771378 -54.289349 90.819061 -131.109160 1.434466 89.555126 1.213102 7.385706 -7.344172 -4.692260 11.192315 8.556060 5.432488 18.019634 -12.574972 nan nan nan -7.211515 -12.421983 4.252041 2.215867 -16.126040 19.827411 1.163872 -14.506785 -15.200907 nan nan nan -5.764497 5.746884 2.890240 2.980071 -4.673595 10.565857 0.307621 1.129146 -5.887646 0.098537 -11.753390 1.530089 1.017819 -15.818608 7.745437 -21.951899 -8.896859 -1.743162 -60.041141 -29.489497 29.660018 1.141542 -57.723271 7.844041 -21.615230 -18.261827 4.601599 24.012875 7.950116 -5.886216 53.545260 0.922924 11.520555 -23.794424 19.021518 -18.357259 13.042190 3.358814 3.953970 
8.893134 -54.397442 90.793297 -131.690887 1.308604 89.573006 1.057467 7.446128 -7.478777 -4.610189 11.433977 8.638435 5.452616 18.171993 -12.599760 nan nan nan -7.112278 -12.395063 4.340695 2.081188 -16.132295 19.646524 1.107639 -14.647766 -14.988449 nan nan nan -5.656410 5.835310 2.872405 2.907451 -4.621972 10.633865 0.217367 1.172117 -6.026140 0.019691 -11.514422 1.572680 0.929785 -15.702391 7.638225 -22.082643 -8.895846 -1.686423 -59.943984 -29.318042 29.602151 1.198010 -56.745818 8.200555 -21.644707 -18.125842 5.356996 24.083630 8.005602 -5.754872 53.751531 0.784340 11.611475 -23.713096 18.682459 -17.949330 12.839229 3.409436 4.346518 
9.030309 -54.474731 90.762383 -132.264633 1.176501 89.646407 0.942304 7.586424 -7.653540 -4.559983 11.722728 8.698854 5.424590 18.175079 -12.639147 nan nan nan -6.923589 -12.317989 4.382396 1.914537 -16.071361 19.371079 1.079959 -14.721356 -14.805866 nan nan nan -5.625921 5.934775 2.791057 2.863053 -4.535991 10.752022 0.170846 1.204624 -6.232774 -0.071747 -11.295557 1.608222 0.824303 -15.628239 7.564713 -22.179733 -8.867825 -1.624609 -59.886792 -29.125065 29.550403 1.331696 -55.795481 8.348435 -22.136262 -18.081110 6.026781 24.111257 8.028704 -5.594119 53.941692 0.615882 11.693591 -23.528983 18.361064 -17.576672 12.834687 3.601066 4.641954 
9.160920 -54.552830 90.722839 -132.803739 1.004946 89.814292 0.771787 7.665399 -7.931110 -4.524053 12.000947 8.746098 5.519224 18.238438 -12.592949 nan nan nan -6.818465 -12.201044 4.326112 1.951565 -15.885816 19.056995 1.195141 -14.827675 -14.678522 nan nan nan -5.617104 5.993662 2.563463 2.795006 -4.502763 10.879219 0.122616 1.248443 -6.366904 -0.266657 -11.138035 1.593494 0.695444 -15.403707 7.617363 -22.275806 -8.844436 -1.634557 -59.745110 -28.822265 29.400399 1.361503 -54.973866 8.346301 -22.427655 -17.848003 6.216820 24.034820 8.006757 -5.518064 54.217598 0.462100 11.776471 -23.135745 18.225274 -17.335480 12.612794 3.614027 4.659344 
9.293976 -54.618492 90.679543 -133.355745 0.861723 89.933509 0.659299 7.700443 -8.158900 -4.507940 12.252833 8.803931 5.594639 18.401985 -12.526267 nan nan nan -6.683267 -11.990203 4.312593 2.023295 -15.629408 18.701223 1.408704 -14.982709 -14.636630 nan nan nan -5.604034 5.971420 2.422832 2.703296 -4.460869 10.833435 0.085509 1.316689 -6.319005 -0.409093 -10.890016 1.549393 0.632207 -15.108089 7.694073 -22.316503 -8.768547 -1.718777 -59.676529 -28.468830 29.251890 1.393139 -54.179121 8.164783 -22.300766 -17.674139 6.093789 24.008797 8.009666 -5.468710 54.483067 0.355197 11.999210 -22.771421 18.133859 -17.127231 12.658747 3.417367 4.272585 
9.450442 -54.676888 90.640884 -133.906826 0.740038 90.018956 0.603532 7.749264 -8.374516 -4.500191 12.568316 8.896713 5.593344 18.488354 -12.515421 nan nan nan -6.532831 -11.909898 4.259460 1.981043 -15.318665 18.405228 1.648081 -15.068907 -14.692282 nan nan nan -5.643732 5.982585 2.420293 2.639911 -4.400153 10.611385 0.101085 1.398637 -6.210075 -0.458942 -10.675359 1.560413 0.692298 -14.839557 7.585396 -22.343637 -8.666069 -1.838220 -59.690755 -28.208557 29.162535 1.367809 -53.274134 8.097939 -22.327251 -17.509919 6.217161 24.010234 7.965320 -5.449827 54.679441 0.271775 12.168020 -22.370789 17.940295 -16.866785 13.084497 3.201776 3.917295 
9.614794 -54.734791 90.611328 -134.451525 0.592961 90.031434 0.527819 7.820807 -8.494433 -4.486161 12.885578 8.963582 5.659401 18.525116 -12.512319 nan nan nan -6.488836 -11.907444 4.313351 1.956728 -15.090041 18.027734 1.977500 -14.992666 -14.946404 nan nan nan -5.616390 6.039960 2.591454 2.537344 -4.343599 10.305316 0.064786 1.430085 -6.151458 -0.421091 -10.524847 1.591337 0.686091 -14.599746 7.410614 -22.403471 -8.535057 -1.866155 -59.552348 -27.950236 28.966032 1.299773 -52.548247 8.154632 -22.250617 -17.107448 6.672852 24.034754 7.877411 -5.352029 54.928425 0.173250 12.311093 -21.979441 17.827135 -16.300785 12.955999 3.062132 4.118203 
9.755495 -54.778725 90.581802 -135.007011 0.456458 89.933710 0.448287 7.931037 -8.436801 -4.433023 13.166730 8.967358 5.744381 18.593543 -12.523719 nan nan nan -6.509796 -11.885482 4.595538 1.934116 -15.127950 17.477060 2.211778 -14.769218 -15.079043 nan nan nan -5.436452 6.100945 2.812241 2.381107 -4.227087 10.102911 -0.077247 1.383193 -6.099205 -0.285280 -10.272922 1.486802 0.492463 -14.564000 7.381624 -22.464895 -8.381289 -1.842552 -59.353651 -27.679831 28.731047 1.459508 -52.004769 8.096694 -22.741472 -16.595230 7.475374 24.083559 7.825722 -5.246290 55.293755 -0.008871 12.550385 -21.850324 17.832033 -15.625447 12.746892 2.906999 4.625943 
9.912120 -54.840523 90.553360 -135.584872 0.316409 89.878889 0.356313 8.014927 -8.477956 -4.360172 13.461221 9.037149 5.759498 18.748348 -12.478293 nan nan nan -6.523907 -11.836013 4.745042 1.827951 -15.327919 16.935499 2.148787 -14.654446 -15.113613 nan nan nan -5.428217 6.045581 2.598130 2.287706 -4.190625 10.625209 -0.102029 1.531379 -6.195673 -0.314789 -10.055118 1.355152 0.392121 -14.526161 7.163287 -22.657458 -8.355074 -1.932492 -59.175482 -27.436522 28.493754 2.017663 -51.415811 7.939789 -23.525706 -16.089755 8.410806 23.979586 8.029529 -5.152184 55.642331 -0.132922 12.620790 -21.851796 17.819244 -15.523730 13.012604 2.761482 4.644979 
10.078679 -54.896656 90.521385 -136.166976 0.090933 89.911065 0.185775 8.077473 -8.620240 -4.310635 13.796986 9.105862 5.781186 18.925260 -12.380140 nan nan nan -6.571341 -11.795186 4.743421 1.679693 -15.324244 16.335654 2.145263 -14.749026 -15.379403 nan nan nan -5.513664 6.093898 2.481049 2.144764 -4.174886 10.841540 -0.110994 1.621987 -6.285806 -0.327388 -9.905763 1.187480 0.256882 -14.353311 7.221314 -22.767440 -8.256392 -1.995650 -59.100939 -27.160186 28.375684 2.402395 -50.791131 7.885320 -23.775835 -15.737822 8.791454 23.988051 8.061147 -5.086457 55.877525 -0.256109 12.712262 -21.823803 17.868671 -15.674746 13.702180 2.670666 4.231962 
10.236090 -54.962193 90.492348 -136.658546 -0.148056 89.966854 -0.015111 8.110549 -8.795603 -4.282715 14.083769 9.170619 5.797264 19.088966 -12.337237 nan nan nan -6.654020 -11.839296 4.760563 1.558285 -15.189181 15.601083 2.202616 -14.851159 -15.608840 nan nan nan -5.544643 6.182988 2.472303 1.996478 -4.213567 10.772712 -0.147956 1.622057 -6.258641 -0.430395 -9.810014 1.049539 0.204192 -14.042005 7.314916 -22.898911 -8.137066 -2.010008 -58.960678 -26.891237 28.298421 2.268924 -50.088833 7.728349 -23.288614 -15.515572 8.625768 24.088925 7.981239 -5.082047 55.961539 -0.378888 12.857028 -21.590249 17.935871 -15.630635 14.065183 2.722967 4.192544 
10.384732 -55.015335 90.473900 -137.115143 -0.317759 89.974543 -0.134929 8.175377 -8.889233 -4.269739 14.337042 9.201775 5.795387 19.234865 -12.250338 nan nan nan -6.779531 -11.946873 4.897468 1.630515 -15.125498 14.800778 2.177036 -14.892825 -15.667290 nan nan nan -5.501099 6.245820 2.500555 1.897549 -4.244611 10.623649 -0.187017 1.616244 -6.128677 -0.563132 -9.703831 0.998289 0.226375 -13.739881 7.266919 -22.943447 -8.082708 -1.906967 -58.842990 -26.619269 28.194036 2.047711 -49.334665 7.415058 -22.170244 -15.515948 8.207805 24.167684 7.915841 -5.043991 56.029229 -0.528076 12.936167 -21.303718 18.073452 -15.381019 13.770342 2.796084 4.386797 
10.519190 -55.037880 90.467560 -137.570876 -0.423161 89.880098 -0.156410 8.338855 -8.787988 -4.273245 14.561888 9.128544 5.816262 19.321052 -12.147002 nan nan nan -6.861983 -12.051086 5.189415 1.755180 -15.079867 13.947353 2.281835 -14.959741 -15.632359 nan nan nan -5.428563 6.290723 2.585839 1.844815 -4.255432 10.524963 -0.184987 1.603702 -6.045941 -0.685740 -9.595924 1.031579 0.171979 -13.532390 7.247538 -23.006494 -8.117751 -1.738956 -58.650739 -26.255751 27.976928 2.195663 -48.658435 7.048263 -21.537915 -15.488284 7.950776 24.229204 7.933041 -4.877887 56.120941 -0.707481 12.875734 -21.164844 18.284793 -15.182491 13.686772 2.732157 4.421256 
